<svg xmlns="http://www.w3.org/2000/svg" viewBox="0 0 32 32" width="32" height="32">
  <defs>
    <linearGradient id="a" x1="0" y1="0" x2="1" y2="1">
      <stop offset="0" stop-color="#114A8B"/>
      <stop offset="1" stop-color="#0078D4"/>
    </linearGradient>
  </defs>
  <rect width="32" height="32" rx="6" fill="url(#a)"/>
  <path d="M15.1 6.5 7.4 23.1c-.2.4.1.9.6.9h3.3c.3 0 .5-.2.6-.4l5.9-13.4-2.6-3.6c-.2-.3-.6-.3-.7-.1z" fill="#fff" opacity=".9"/>
  <path d="M17.6 11.7 13.9 20c-.1.3.1.6.4.6h9.1c.4 0 .7-.4.5-.8l-5.6-7.9c-.2-.3-.6-.3-.7-.2z" fill="#fff"/>
</svg>
